# xmcd
#
# Track frame offsets:
#        150
#        17685
#        32315
#        49655
#        64572
#        79977
#        93862
#        124252
#        149440
#        166872
#        181270
#        214407
#        232337
#        249132
#
# Disc length: 3649 seconds
#
# Revision: 0
# Processed by: cddbd v1.5.1PL2 Copyright (c) Steve Scherf et al.
# Submitted via: ExactAudioCopy v0.95b3
#
DISCID=b60e3f0e
DTITLE=Various Artist - dance to heaven 2
DYEAR=1999
DGENRE=Eurodance
TTITLE0=Haddaway - What Is Love (7" Mix)
TTITLE1=Bamboo - Bamboogie (Radio Edit)
TTITLE2=Robi Rob's Club World - Make That Money (Roxbury Remix)
TTITLE3=Cyndi Lauper - Disco Inferno
TTITLE4=N-Trance featuring Rod Stewart - Da Ya Think I'm Sexy ?
TTITLE5=3rd Party - Pop Muzik
TTITLE6=Faithless - Insomnia (Monser Mix)
TTITLE7=Bouche - Be My Lover (Club Mix)
TTITLE8=Amber - This Is Your Night
TTITLE9=Ace Of Base - Beautiful Life
TTITLE10=No Mercy - Where Do You Go (Ocean Drive Mix)
TTITLE11=Jocelyn Enriquez - A Little Bit Of Ecstasy
TTITLE12=Haddaway - What Is Love (Refreshmento Extro Radio Mix)
TTITLE13=Tamia - Careless Whisper
EXTD=
EXTT0=
EXTT1=
EXTT2=
EXTT3=
EXTT4=
EXTT5=
EXTT6=
EXTT7=
EXTT8=
EXTT9=
EXTT10=
EXTT11=
EXTT12=
EXTT13=
PLAYORDER=
